# xmcd CD database file
#
# Track frame offsets:
#	150
#	29265
#	38627
#	57952
#	72495
#	99012
#	110902
#	122670
#	136045
#	149935
#
# Disc length: 2360 seconds
#
# Revision: 2
# Processed by: cddbd v1.5.1PL0 Copyright (c) Steve Scherf et al.
# Submitted via: CDex 1.51
#
DISCID=9009360a
DTITLE=Neil Young - This Notes For You
DYEAR=1988
DGENRE=Rock
TTITLE0=Ten Men Workin'
TTITLE1=This Notes For You
TTITLE2=Coupe De Ville
TTITLE3=Life In The City
TTITLE4=Twilight
TTITLE5=Married Men
TTITLE6=Sunny Inside
TTITLE7=Can't Believe Your Lyin'
TTITLE8=Hey Hey
TTITLE9=One Thing
EXTD=YEAR: 1988
EXTT0=
EXTT1=
EXTT2=
EXTT3=
EXTT4=
EXTT5=
EXTT6=
EXTT7=
EXTT8=
EXTT9=
PLAYORDER=
